{"title":"The.Wedding.Planner.[2001].DvdRip.XviD-KnÃƒÂ£","uid":6387033,"size":940021760,"categoryP":"video","categoryS":"movies","magnet":"?xt=urn:btih:d39513521a59f268b6f0678fc70ed86ea92034b2&amp;dn=The.Wedding.Planner.%5B2001%5D.DvdRip.XviD-Kn%C3%83%C2%A3&amp;tr=udp%3A%2F%2Ftracker.openbittorrent.com%3A80&amp;tr=udp%3A%2F%2Fopen.demonii.com%3A1337&amp;tr=udp%3A%2F%2Ftracker.coppersurfer.tk%3A6969&amp;tr=udp%3A%2F%2Fexodus.desync.com%3A6969","seeders":22,"leechers":2,"uploader":"Jon.Pson","files":1,"time":1305237217,"description":"Mary Fiore is the wedding planner. She's ambitious, hard-working, extremely organized, and she knows exactly what to do and say to make any wedding a spectacular event. Bt when Mary falls (literally) for a handsome doctor her busy yet uncomplicated life is turned upside down - he's the groom in the biggest wedding of her career! Will she help him walk down the aisle with his internet tycoon girlfriend, or will Mary finally get to be the bride herself? When it comes to love, you can never plan what's going to happen.\n\n\nGeneral\nComplete name                    : H:\\Movies\\The.Wedding.Planner.[2001].DvdRip.XviD-KnÃƒÂ£\\The.Wedding.Planner.[2001].DvdRip.XviD-KnÃƒÂ£.avi\nFormat                           : AVI\nFormat/Info                      : Audio Video Interleave\nFile size                        : 896 MiB\nDuration                         : 1h 39mn\nOverall bit rate                 : 1 263 Kbps\nWriting application              : VirtualDubMod 1.5.4.1 (build 2178/release)\nWriting library                  : VirtualDubMod build 2178/release\n\nVideo\nID                               : 0\nFormat                           : MPEG-4 Visual\nFormat profile                   : Advanced Simple@L5\nFormat settings, BVOP            : Yes\nFormat settings, QPel            : No\nFormat settings, GMC             : No warppoints\nFormat settings, Matrix          : Custom\nCodec ID                         : XVID\nCodec ID/Hint                    : XviD\nDuration                         : 1h 39mn\nBit rate                         : 808 Kbps\nWidth                            : 672 pixels\nHeight                           : 288 pixels\nDisplay aspect ratio             : 2.35:1\nFrame rate                       : 25.000 fps\nColor space                      : YUV\nChroma subsampling               : 4:2:0\nBit depth                        : 8 bits\nScan type                        : Progressive\nBits/(Pixel*Frame)               : 0.167\nStream size                      : 574 MiB (64%)\nWriting library                  : XviD 1.2.1 (UTC 2008-12-04)\n\nAudio\nID                               : 1\nFormat                           : AC-3\nFormat/Info                      : Audio Coding 3\nMode extension                   : CM (complete main)\nCodec ID                         : 2000\nDuration                         : 1h 39mn\nBit rate mode                    : Constant\nBit rate                         : 448 Kbps\nChannel(s)                       : 6 channels\nChannel positions                : Front: L C R, Side: L R, LFE\nSampling rate                    : 48.0 KHz\nBit depth                        : 16 bits\nStream size                      : 318 MiB (35%)\nAlignment                        : Aligned on interleaves\nInterleave, duration             : 96 ms (2.40 video frames)\nInterleave, preload duration     : 96 ms\nLanguage                         : English\n\n","torrent":{"xt":"urn:btih:d39513521a59f268b6f0678fc70ed86ea92034b2","amp;dn":"The.Wedding.Planner.%5B2001%5D.DvdRip.XviD-Kn%C3%83%C2%A3","amp;tr":["udp%3A%2F%2Ftracker.openbittorrent.com%3A80","udp%3A%2F%2Fopen.demonii.com%3A1337","udp%3A%2F%2Ftracker.coppersurfer.tk%3A6969","udp%3A%2F%2Fexodus.desync.com%3A6969"],"infoHash":"d39513521a59f268b6f0678fc70ed86ea92034b2","infoHashBuffer":{"type":"Buffer","data":[211,149,19,82,26,89,242,104,182,240,103,143,199,14,216,110,169,32,52,178]},"announce":[],"urlList":[]}}